<svg width="339.107" height="177.333" xmlns="http://www.w3.org/2000/svg">
    <path
        d="M264.836 115.328c-9.074-8.219-19.848-12.746-34.875-12.746-19.277 0-30.613 7.367-39.121 17.008-15.027 17-14.742 46.211-14.742 85.898 0 39.692-.285 69.461 14.742 86.473 8.508 9.641 19.844 17.008 39.121 17.008 15.312 0 26.086-4.539 35.156-13.039 9.922-9.36 15.598-24.668 16.16-42.532h-31.75c-.285 7.372-1.422 14.461-4.82 19.571-2.836 4.531-7.09 7.359-14.746 7.359-7.652 0-12.188-3.109-15.023-7.637-5.954-9.652-7.086-30.062-7.086-66.921 0-36.848 1.132-57.258 7.086-66.899 2.835-4.543 7.371-7.66 15.023-7.66 7.656 0 12.191 2.828 15.027 7.367 3.403 5.102 4.539 12.473 4.821 19.852h31.754c-.567-18.149-6.524-33.739-16.727-43.102M464.094 104.84v201.859h84.761V278.07h-53.011v-57.269h45.644v-28.629h-45.644V133.48h53.011v-28.64h-84.761M783.563 278.07h-19.559v-61.808h19.559c17.011 0 19.562 14.179 19.562 30.91 0 16.726-2.551 30.898-19.562 30.898zm24.667-173.23-26.367 82.789h-17.859V104.84H732.25v201.859h51.031c36.856 0 51.598-17.859 51.598-59.527 0-24.953-5.106-42.813-23.531-52.742l30.054-89.59H808.23M1071.3 278.07V104.84h-31.75v173.23h-33.74v28.629h99.51V278.07h-34.02M1284.17 104.84v201.859h31.75V104.84h-31.75M1537.59 278.07v-57.269h45.64v-28.629h-45.64V104.84h-31.76v201.859h84.77V278.07h-53.01M1772.29 104.84v201.859h31.76V104.84h-31.76M1993.96 104.84v201.859h84.77V278.07h-53.02v-57.269h45.65v-28.629h-45.65V133.48h53.02v-28.64h-84.77M2328.74 269.84c-3.11 4.832-8.5 8.23-16.16 8.23h-18.71V133.48h18.71c7.66 0 13.05 3.399 16.16 8.219 5.95 9.352 6.81 29.199 6.81 64.352 0 35.16-.86 54.437-6.81 63.789zm23.82-148.27c-8.22-9.351-19.84-16.73-39.12-16.73h-51.33v201.859h51.33c19.28 0 30.9-7.371 39.12-16.73 15.02-16.719 14.73-45.36 14.73-84.199 0-38.84.29-67.469-14.73-84.2"
        style="fill:#fff;fill-opacity:1;fill-rule:nonzero;stroke:none"
        transform="matrix(.13333 0 0 -.13333 0 177.333)" />
    <path d="M2538.33 5H4.996v405H2538.33V5"
        style="fill:#f68712;fill-opacity:1;fill-rule:nonzero;stroke:none"
        transform="matrix(.13333 0 0 -.13333 0 177.333)" />
    <path d="M2538.33 5H5v1319.99h2533.33z"
        style="fill:none;stroke:#bdbcbc;stroke-width:10;stroke-linecap:butt;stroke-linejoin:miter;stroke-miterlimit:4;stroke-dasharray:none;stroke-opacity:1"
        transform="matrix(.13333 0 0 -.13333 0 177.333)" />
    <path d="m552.297 576.941-120.867-56.66v646.599l120.867 56.66V576.941"
        style="fill:#f68712;fill-opacity:1;fill-rule:nonzero;stroke:none"
        transform="matrix(.13333 0 0 -.13333 0 177.333)" />
    <path
        d="M201.035 768.055c0 81.535 89.879 150.175 212.266 170.996v72.119C226.938 988.98 86.246 888.586 86.246 768.055c0-124.434 149.899-227.418 345.184-245.078v71.339c-131.563 16.825-230.395 88.211-230.395 173.739M845.395 814.102 829.52 979.555l-56.965-33.496c-54.789 32.437-124.418 55.521-202.125 64.951v-72.233c45.246-7.839 85.922-22.265 119.242-41.464l-61.836-36.356 217.559-46.855"
        style="fill:#bdbcbc;fill-opacity:1;fill-rule:nonzero;stroke:none"
        transform="matrix(.13333 0 0 -.13333 0 177.333)" />
    <path
        d="M1011.97 752.527c4.19-15.75 10.78-29.922 19.78-42.507 8.98-12.59 20.54-22.696 34.62-30.352 14.09-7.637 30.88-11.465 50.37-11.465 19.48 0 36.27 3.828 50.35 11.465 14.1 7.656 25.63 17.762 34.62 30.352 9.01 12.585 15.59 26.757 19.79 42.507a184.377 184.377 0 0 1 6.3 47.871c0 16.196-2.09 32.168-6.3 47.895-4.2 15.73-10.78 29.883-19.79 42.488-8.99 12.586-20.52 22.715-34.62 30.371-14.08 7.637-30.87 11.453-50.35 11.453-19.49 0-36.28-3.816-50.37-11.453-14.08-7.656-25.64-17.785-34.62-30.371-9-12.605-15.59-26.758-19.78-42.488a184.462 184.462 0 0 1-6.3-47.895c0-16.179 2.09-32.144 6.3-47.871zm-39.357 111.047c6.45 20.227 16.121 38.164 29.007 53.731 12.89 15.586 28.94 28.011 48.12 37.324 19.19 9.289 41.52 13.949 67 13.949 25.48 0 47.81-4.66 67-13.949 19.19-9.313 35.22-21.738 48.12-37.324 12.88-15.567 22.55-33.504 28.99-53.731 6.45-20.234 9.66-41.301 9.66-63.176 0-21.902-3.21-42.929-9.66-63.179-6.44-20.215-16.11-38.149-28.99-53.723-12.9-15.598-28.93-27.961-48.12-37.101-19.19-9.149-41.52-13.719-67-13.719-25.48 0-47.81 4.57-67 13.719-19.18 9.14-35.23 21.503-48.12 37.101-12.886 15.574-22.557 33.508-29.007 53.723-6.437 20.25-9.652 41.277-9.652 63.179 0 21.875 3.215 42.942 9.652 63.176M1479.83 789.836c-2.86 10.34-7.19 19.551-13.04 27.664-5.84 8.094-13.34 14.52-22.49 19.316-9.15 4.786-19.85 7.215-32.13 7.215-12.92 0-23.86-2.558-32.84-7.676-8.98-5.093-16.35-11.746-22.04-19.988-5.69-8.242-9.81-17.617-12.36-28.105a134.86 134.86 0 0 1-3.82-31.922c0-11.418 1.35-22.422 4.04-33.047 2.7-10.664 6.97-20.012 12.83-28.117 5.84-8.078 13.4-14.61 22.71-19.563 9.29-4.937 20.53-7.41 33.72-7.41 13.18 0 24.2 2.539 33.04 7.645 8.85 5.097 15.96 11.82 21.38 20.238 5.39 8.387 9.27 17.977 11.68 28.777 2.39 10.801 3.59 21.883 3.59 33.282 0 10.789-1.42 21.347-4.27 31.691zm-137.37 82.508v-31.465h.9c6.29 12.859 16.19 22.246 29.67 28.086 13.49 5.859 28.34 8.777 44.52 8.777 17.98 0 33.64-3.277 46.99-9.883 13.33-6.609 24.43-15.535 33.27-26.757 8.84-11.258 15.52-24.207 20.02-38.895 4.49-14.687 6.74-30.281 6.74-46.777 0-16.477-2.17-32.071-6.53-46.75-4.33-14.707-10.93-27.508-19.77-38.465-8.85-10.918-19.94-19.551-33.28-25.852-13.35-6.277-28.85-9.433-46.53-9.433-5.71 0-12.07.605-19.12 1.789a104.94 104.94 0 0 0-20.91 5.859c-6.91 2.715-13.41 6.356-19.56 11.016-6.15 4.629-11.31 10.398-15.51 17.293h-.9V551.289h-38.23v321.055h38.23M1711.4 803.984c-3.44 8.114-8.09 15.079-13.93 20.907-5.87 5.851-12.75 10.492-20.7 13.925-7.95 3.469-16.71 5.215-26.3 5.215-9.89 0-18.81-1.746-26.76-5.215-7.94-3.433-14.75-8.132-20.45-14.148-5.7-5.988-10.2-12.957-13.49-20.906-3.3-7.922-5.25-16.391-5.85-25.395h133.54c-.59 9.004-2.62 17.551-6.06 25.617zm9.21-149.265c-17.38-13.215-39.27-19.789-65.64-19.789-18.6 0-34.72 2.992-48.34 9.004-13.66 5.988-25.12 14.386-34.41 25.16-9.29 10.828-16.26 23.679-20.89 38.679-4.65 14.989-7.28 31.336-7.88 49.004 0 17.696 2.69 33.875 8.09 48.575 5.4 14.687 12.97 27.429 22.71 38.211 9.73 10.812 21.28 19.171 34.63 25.199 13.32 5.965 27.95 8.98 43.83 8.98 20.69 0 37.85-4.285 51.49-12.82 13.63-8.516 24.59-19.426 32.83-32.586 8.24-13.203 13.93-27.59 17.07-43.188 3.16-15.585 4.44-30.418 3.83-44.5h-174.01c-.3-10.207.9-19.863 3.59-28.996 2.71-9.168 7.05-17.246 13.06-24.304 5.98-7.032 13.63-12.649 22.93-16.844 9.28-4.223 20.22-6.301 32.81-6.301 16.19 0 29.45 3.75 39.79 11.223 10.35 7.527 17.15 18.894 20.48 34.195h37.76c-5.11-26.082-16.35-45.723-33.73-58.902M1819.99 872.344v-36.867h.88c15.9 28.164 41.08 42.265 75.54 42.265 15.3 0 28.03-2.117 38.24-6.277 10.18-4.207 18.43-10.07 24.72-17.57 6.3-7.461 10.71-16.383 13.27-26.739 2.54-10.34 3.81-21.804 3.81-34.402V639.863h-38.2v157.395c0 14.402-4.21 25.769-12.6 34.16-8.38 8.395-19.94 12.613-34.62 12.613-11.69 0-21.82-1.824-30.35-5.41-8.55-3.594-15.68-8.699-21.36-15.293-5.71-6.59-9.98-14.324-12.83-23.152-2.84-8.836-4.26-18.528-4.26-28.996V639.863h-38.22v232.481h35.98M2071.33 960.922V639.863h-42.72v321.059h42.72M2243.56 675.848c4.77 0 10.79.363 17.96 1.117 7.19.758 14.87 2.547 22.95 5.406 8.1 2.863 16.12 6.965 24.06 12.356 7.95 5.39 15.09 12.742 21.35 22.039 6.34 9.281 11.45 20.91 15.53 34.855 4.05 13.926 6.05 30.801 6.05 50.586 0 19.16-1.87 36.34-5.6 51.484-3.77 15.118-9.9 28.008-18.46 38.661-8.54 10.636-19.53 18.742-33.03 24.269-13.47 5.567-30.14 8.348-49.93 8.348h-71.94V675.848Zm-3.61 285.074c49.44 0 87.54-12.582 114.22-37.777 26.67-25.168 40.03-63.555 40.03-115.09 0-27-3.01-50.887-9.02-71.715-6.01-20.832-15.27-38.391-27.86-52.621-12.62-14.227-28.62-25.125-48.1-32.617-19.54-7.481-42.57-11.239-69.27-11.239h-110.17v321.059h110.17M2411.38 926.711c1.58 0 3.09.066 4.5.152 1.44.11 2.69.403 3.8.879 1.11.488 1.98 1.25 2.65 2.238.63.997.97 2.391.97 4.18 0 1.516-.31 2.735-.87 3.641-.57.898-1.37 1.586-2.28 2.07-.94.481-2.02.813-3.21.969-1.24.195-2.42.273-3.59.273h-9.32v-14.402zm3.1 20.094c5.42 0 9.37-1.051 11.99-3.211 2.62-2.149 3.9-5.371 3.9-9.739 0-4.082-1.18-7.05-3.44-8.945-2.29-1.933-5.12-3.035-8.5-3.398l12.96-19.989h-7.59l-12.31 19.493h-7.46v-19.493h-7.04v45.282zm-31.96-35.692c1.63-4.035 3.85-7.558 6.75-10.527 2.86-2.981 6.23-5.305 10.16-6.984 3.9-1.707 8.09-2.528 12.67-2.528 4.53 0 8.69.821 12.54 2.528 3.9 1.679 7.24 4.003 10.11 6.984 2.85 2.969 5.1 6.492 6.72 10.527 1.65 4.032 2.44 8.438 2.44 13.223 0 4.629-.79 8.945-2.44 12.949-1.62 4.004-3.87 7.488-6.72 10.418-2.87 2.918-6.21 5.262-10.11 6.926-3.85 1.699-8.01 2.547-12.54 2.547-4.58 0-8.77-.848-12.67-2.547a31.056 31.056 0 0 1-10.16-6.926c-2.9-2.93-5.12-6.414-6.75-10.418s-2.42-8.32-2.42-12.949c0-4.785.79-9.191 2.42-13.223zm-6.37 28.446c2.07 4.687 4.88 8.769 8.42 12.226 3.56 3.449 7.75 6.176 12.47 8.137 4.71 1.976 9.76 2.969 15.06 2.969 5.33 0 10.35-.993 15.01-2.969 4.71-1.961 8.85-4.688 12.32-8.137 3.58-3.457 6.36-7.539 8.45-12.226 2.09-4.688 3.1-9.786 3.1-15.223 0-5.606-1.01-10.781-3.1-15.496-2.09-4.738-4.87-8.84-8.45-12.336-3.47-3.488-7.61-6.203-12.32-8.145-4.66-1.914-9.68-2.898-15.01-2.898-5.3 0-10.35.984-15.06 2.898-4.72 1.942-8.91 4.657-12.47 8.145-3.54 3.496-6.35 7.598-8.42 12.336-2.09 4.715-3.12 9.89-3.12 15.496 0 5.437 1.03 10.535 3.12 15.223"
        style="fill:#fff;fill-opacity:1;fill-rule:nonzero;stroke:none"
        transform="matrix(.13333 0 0 -.13333 0 177.333)" />
    <path
        d="M322.066 248.18c-3.925 17.179-11.191 29.41-21.836 36.691-10.644 7.277-24.55 10.918-41.718 10.918-12.129 0-22.598-2.43-31.367-7.277-8.77-4.864-15.997-11.391-21.7-19.602-5.683-8.219-9.882-17.691-12.597-28.422-2.715-10.726-4.063-22.078-4.063-34.027 0-11.199 1.172-22.211 3.496-33.031 2.344-10.828 6.211-20.489 11.621-28.989 5.411-8.492 12.696-15.351 21.856-20.57 9.14-5.23 20.625-7.84 34.433-7.84 8.575 0 16.426 1.399 23.516 4.188 7.09 2.812 13.301 6.672 18.613 11.633 5.332 4.937 9.805 10.777 13.457 17.5 3.633 6.707 6.387 14.089 8.262 22.109h19.863c-2.226-9.699-5.507-18.891-9.785-27.57-4.297-8.692-9.941-16.289-16.953-22.832-6.992-6.528-15.488-11.7-25.469-15.528-10-3.832-21.699-5.75-35.136-5.75-15.508 0-28.75 2.86-39.766 8.547-11.016 5.692-20.02 13.391-27.031 23.102-6.992 9.699-12.09 20.949-15.254 33.742-3.176 12.777-4.758 26.359-4.758 40.738 0 19.219 2.375 35.551 7.141 49 4.765 13.442 11.347 24.399 19.746 32.891 8.398 8.5 18.281 14.66 29.668 18.488 11.386 3.82 23.808 5.731 37.246 5.731 10.254 0 19.824-1.348 28.691-4.051 8.867-2.707 16.719-6.77 23.535-12.18 6.797-5.418 12.403-12.09 16.797-20.019 4.375-7.942 7.422-17.129 9.102-27.59h-19.61M484.176 105.109v201.602h134.121v-16.242H503.219v-72.797h103.875V201.43H503.219v-80.078h117.879v-16.243H484.176M836.422 212.91c7.09 0 13.672.738 19.734 2.238 6.067 1.493 11.348 3.872 15.821 7.133 4.484 3.27 8.027 7.43 10.644 12.469 2.609 5.031 3.918 11.102 3.918 18.199 0 7.461-1.359 13.621-4.062 18.481-2.707 4.851-6.348 8.679-10.918 11.468-4.571 2.813-9.797 4.774-15.676 5.891-5.879 1.121-12 1.68-18.34 1.68h-60.488V212.91Zm-59.367-16.238v-91.563l-19.032.282v201.32h78.954c22.218 0 39.199-4.16 50.968-12.461 11.758-8.309 17.637-21.801 17.637-40.461 0-12.699-2.57-22.769-7.707-30.25-5.137-7.461-13.484-13.809-25.059-19.027 5.977-2.063 10.645-5.051 14.004-8.961 3.36-3.922 5.879-8.403 7.559-13.442 1.68-5.039 2.754-10.359 3.223-15.968.461-5.59.793-11.012.976-16.231.188-7.648.52-14 .977-19.039.468-5.043 1.027-9.152 1.679-12.332.657-3.168 1.446-5.641 2.383-7.418.938-1.762 2.051-3.121 3.36-4.051v-1.679l-20.997-.282c-2.058 3.36-3.503 8.02-4.343 14a269.812 269.812 0 0 0-1.953 18.762c-.469 6.52-.84 12.879-1.125 19.027-.282 6.172-.789 11.211-1.543 15.133-1.114 5.41-2.938 9.75-5.457 13.02-2.52 3.258-5.559 5.738-9.102 7.418-3.547 1.679-7.512 2.793-11.894 3.359a106.7 106.7 0 0 1-13.586.844h-59.922M1029.9 306.711h146.72v-16.242h-63.84v-185.36h-19.04v185.36h-63.84v16.242M1313.54 105.109v201.602h19.03V105.109h-19.03M1485.74 105.109v201.602h129.92v-16.242h-110.89v-72.797h100.8V201.43h-100.8v-96.321h-19.03M1753.15 105.109v201.602h19.03V105.109h-19.03M1927.3 105.109v201.602h134.12v-16.242h-115.08v-72.797h103.88V201.43h-103.88v-80.078h117.88v-16.243H1927.3M2220.45 121.352h45.65c8.58 0 16.66.507 24.22 1.539 7.56 1.031 15.25 3.578 23.09 7.699 6.72 3.359 12.23 7.93 16.53 13.719a75.845 75.845 0 0 1 10.21 18.89c2.52 6.821 4.3 13.961 5.32 21.43 1.03 7.461 1.55 14.652 1.55 21.562 0 7.278-.47 14.7-1.4 22.258-.94 7.563-2.71 14.742-5.32 21.563-2.62 6.816-6.16 13.066-10.65 18.758-4.48 5.691-10.26 10.402-17.35 14.128-5.98 3.18-13.08 5.231-21.29 6.172-8.21.93-16.51 1.399-24.91 1.399h-45.65zm-19.04-16.243v201.602h68.89c5.59 0 11.1-.141 16.51-.422 5.42-.277 10.73-.937 15.97-1.961a79.945 79.945 0 0 0 15.25-4.617c4.95-2.063 9.76-4.762 14.43-8.121 6.71-4.86 12.22-10.781 16.52-17.781 4.29-7 7.69-14.379 10.21-22.118 2.52-7.75 4.3-15.589 5.33-23.531 1.02-7.93 1.54-15.25 1.54-21.969 0-6.73-.42-13.543-1.26-20.441-.84-6.91-2.2-13.68-4.06-20.301a105.283 105.283 0 0 0-7.42-19.039 72.837 72.837 0 0 0-11.63-16.66c-4.66-5.23-9.75-9.43-15.26-12.602a78.789 78.789 0 0 0-17.35-7.418c-6.08-1.781-12.38-2.992-18.91-3.652-6.53-.648-13.15-.969-19.87-.969h-68.89"
        style="fill:#fff;fill-opacity:1;fill-rule:nonzero;stroke:none"
        transform="matrix(.13333 0 0 -.13333 0 177.333)" />
</svg>