<svg xmlns="http://www.w3.org/2000/svg" height="138.349" width="313.093"><defs><clipPath clipPathUnits="userSpaceOnUse" id="a"><path style="fill:#00f;fill-rule:evenodd" d="M-.847 0h315.653v215.661H-.847z"/></clipPath></defs><path d="M164.06 285.084c5.628 0 9.723 4.143 9.723 10.964 0 9.277-6.393 15.143-13.484 15.143-5.627 0-9.756-4.143-9.756-10.963 0-9.277 6.393-15.144 13.518-15.144zm-117.896.367-2.13 14.703c-.267 1.944-.467 3.667.2 4.95.599 1.174 1.697 1.907 3.329 1.907 1.631 0 2.93-.733 3.862-1.906.968-1.204 1.32-2.794 1.58-4.589l.051-.362 2.131-14.703h4.262l-2.13 14.85c-.5 3.373-1.266 5.83-3.097 7.847-1.732 1.943-4.195 3.043-7.258 3.043-3.064 0-5.194-1.1-6.393-3.043-1.217-1.94-1.325-4.285-.887-7.462l.055-.385 2.13-14.85zm-18.944-.367c5.627 0 9.722 4.143 9.722 10.964 0 9.277-6.393 15.143-13.485 15.143-5.626 0-9.755-4.143-9.755-10.963 0-9.277 6.393-15.144 13.518-15.144zm156.119.367 7.99 18.443.004-.034c.037-.326.336-2.94.722-5.66l.04-.282 1.798-12.467h4.162l-3.63 25.3h-4.294l-8.157-18.664s-.33 2.667-.716 5.411l-.117.823-1.798 12.43h-4.161l3.629-25.3zm-34.36 0-3.63 25.3h-4.261l3.629-25.3zm-6.726 0-.566 3.85h-5.96l-3.096 21.45h-4.195l3.096-21.45h-5.993l.566-3.85zm-22.44-.037 4.894 25.337h-4.628l-1.032-5.83h-8.457l-2.697 5.83h-4.395l12.152-25.337zm-25.238.037c6.193 0 10.155 3.666 10.155 10.597 0 8.57-5.957 14.536-13.466 14.7l-.318.003h-7.059l3.63-25.3zm-26.336 0 7.99 18.443s.293-2.61.686-5.414l.08-.562 1.798-12.467h4.162l-3.629 25.3h-4.295l-8.157-18.664s-.33 2.667-.716 5.411l-.117.823-1.798 12.43h-4.161l3.629-25.3zm-54.57 0-.566 3.996H4.38l-1.033 7.114h8.224l-.566 3.923H2.781l-1.464 10.267h-4.262l3.629-25.3zm149.793 3.776c-4.528 0-8.457 4.107-8.457 10.414 0 4.547 2.43 7.37 5.893 7.37 4.561 0 8.457-4.18 8.457-10.487 0-4.51-2.397-7.297-5.893-7.297zm-136.842 0c-4.528 0-8.456 4.107-8.456 10.414 0 4.547 2.43 7.37 5.893 7.37 4.561 0 8.457-4.18 8.457-10.487 0-4.51-2.398-7.297-5.894-7.297zm67.555.22h-2.963l-2.497 17.27h2.963c5.194 0 8.624-4.62 8.624-10.193 0-4.437-1.931-7.077-6.127-7.077zm22.707 1.43-4.694 10.23h6.392zm83.341-55.76c3.31 0 5.349 1.402 6.504 2.885l.12.16-2.463 3.41c-1.232-1.467-2.763-2.53-4.46-2.53-2.064 0-3.729 1.173-3.729 3.226 0 1.54 1.001 2.178 1.932 2.68l.132.07 3.329 1.724c2.43 1.136 3.462 2.97 3.462 5.426 0 5.244-3.629 8.984-9.055 8.984-3.346 0-5.635-1.885-6.867-3.732l-.123-.191 2.496-3.447c1.465 2.163 3.33 3.337 5.293 3.337 2.297 0 3.895-1.394 3.895-3.887 0-1.54-.865-2.2-2.463-2.97-1.066-.514-2.098-1.064-3.196-1.577-.965-.44-3.162-1.687-3.162-5.317 0-4.73 3.994-8.25 8.355-8.25zm-40.779-.072c4.172 0 6.333 1.972 7.094 3.026l.063.09-2.03 3.887c-.466-.953-2.663-2.897-5.793-2.897-4.194 0-8.288 3.594-8.288 10.524 0 4.473 2.263 7.37 6.025 7.37 2.78 0 4.916-1.352 6.437-2.887l.187-.193.966 3.594c-1.465 1.54-4.095 3.593-8.422 3.593-5.693 0-9.654-4.217-9.654-10.964 0-9.13 6.291-15.144 13.415-15.144zm75.066.073c3.311 0 5.35 1.401 6.505 2.884l.12.16-2.463 3.41c-1.232-1.467-2.763-2.53-4.461-2.53-2.064 0-3.728 1.173-3.728 3.226 0 1.54 1 2.178 1.931 2.68l.132.07 3.33 1.724c2.43 1.136 3.461 2.97 3.461 5.426 0 5.244-3.628 8.984-9.054 8.984-3.347 0-5.636-1.885-6.867-3.732l-.124-.191 2.497-3.447c1.465 2.163 3.329 3.337 5.293 3.337 2.297 0 3.895-1.394 3.895-3.887 0-1.54-.866-2.2-2.464-2.97-1.065-.514-2.097-1.064-3.196-1.577-.965-.44-3.162-1.687-3.162-5.317 0-4.73 3.995-8.25 8.355-8.25zm-55.359-.073c5.626 0 9.72 4.143 9.72 10.963 0 9.277-6.39 15.144-13.481 15.144-5.626 0-9.754-4.143-9.754-10.964 0-9.277 6.391-15.143 13.515-15.143zm-67.41 0c5.507 0 7.6 3.336 8.249 4.338l.04.062-3.229 2.823c-.865-1.467-2.463-3.19-5.625-3.19-4.494 0-8.323 4.107-8.323 10.634 0 4.62 2.397 7.333 5.86 7.333 3.52 0 5.174-1.506 5.498-1.841l.06-.066.666-4.656h-5.16l.533-3.704h9.288l-1.465 10.157c-.966.844-4.261 4.217-10.053 4.217-5.526 0-9.687-3.813-9.687-10.854 0-9.423 6.524-15.254 13.348-15.254zm173.535.366 2.497 18.004h.033l7.856-18.004h5.393l-1.631 25.301h-4.195l1.398-19.104h-.066l-8.389 19.214h-3.296l-2.796-19.214h-.1l-4.227 19.104h-4.062l5.726-25.3zm-239.613 0-3.062 21.34h7.59l-.567 3.961H37.807l3.628-25.3zm99.634 0-.566 3.96h-9.288l-.899 6.27h8.755l-.566 3.924h-8.755l-1.032 7.187h9.554l-.566 3.96H128.12l3.629-25.3zm-115.113 0c4.16 0 6.957 2.237 6.957 6.27 0 4.838-2.32 6.944-5.564 8.098l-.228.08 4.294 10.853h-4.96l-3.628-10.267h-1.898l-1.464 10.267h-4.261l3.628-25.3zm-10.952 0-.566 3.96H9.378l-.898 6.27h8.754l-.565 3.924H7.914l-1.032 7.187h9.554l-.566 3.96H2.055l3.628-25.3zm255.525 0-.566 3.96h-9.288l-.899 6.27h8.755l-.566 3.924h-8.755l-1.031 7.187h9.553l-.566 3.96H257.58l3.628-25.3zm-16.012 0-.566 3.85h-5.959l-3.096 21.451h-4.194l3.096-21.45h-5.992l.566-3.85zM66.9 235.375l4.894 25.337h-4.627l-1.032-5.83H57.68l-2.696 5.83H50.59l12.15-25.337Zm145.206.036 3.462 10.854 6.525-10.854h4.727l-9.72 14.887-1.499 10.414h-4.26l1.497-10.414-5.426-14.887zm-129.893 0 7.99 18.444s.292-2.61.685-5.414l.08-.563 1.798-12.467h4.16L93.3 260.712h-4.294l-8.156-18.664s-.33 2.667-.715 5.41l-.117.824-1.797 12.43h-4.162l3.629-25.3zm96.338 3.777c-4.527 0-8.455 4.107-8.455 10.414 0 4.546 2.43 7.37 5.892 7.37 4.56 0 8.455-4.18 8.455-10.487 0-4.51-2.397-7.297-5.892-7.297zm-114.58 1.65-4.694 10.23h6.392zm-35.086-1.687h-2.13l-1.066 7.554h2.13c2.93 0 4.894-1.284 4.894-4.437 0-2.2-1.498-3.117-3.828-3.117zM241.83 176.89c1.38 0 2.5 1.218 2.5 2.72 0 .118-.007.237-.021.355l-3.223 26.609c-.164 1.353-1.224 2.364-2.478 2.364H213.47c-1.381 0-2.5-1.218-2.5-2.72 0-.118.007-.237.02-.355l3.223-26.609c.164-1.353 1.225-2.364 2.479-2.364zm-146.827 0c1.38 0 2.5 1.218 2.5 2.72 0 .118-.007.236-.022.354l-3.214 26.609c-.163 1.353-1.224 2.365-2.479 2.365H10.364c-1.38 0-2.5-1.218-2.5-2.72 0-.118.007-.236.022-.354l3.214-26.609c.163-1.353 1.224-2.365 2.479-2.365zm101.552 0c1.381 0 2.5 1.218 2.5 2.72 0 .118-.007.236-.02.354l-3.215 26.609c-.164 1.353-1.224 2.365-2.479 2.365h-81.425c-1.38 0-2.5-1.218-2.5-2.72 0-.118.007-.236.021-.354l3.215-26.609c.163-1.353 1.223-2.365 2.478-2.365zm107.9-50.36c1.38 0 2.5 1.217 2.5 2.719 0 .118-.007.236-.021.354l-3.214 26.609c-.164 1.353-1.224 2.365-2.48 2.365h-81.424c-1.381 0-2.5-1.218-2.5-2.72 0-.118.007-.236.02-.354l3.215-26.609c.164-1.353 1.224-2.365 2.479-2.365zm-203.105 0c1.38 0 2.5 1.217 2.5 2.719 0 .118-.007.236-.021.354l-3.215 26.609c-.163 1.353-1.224 2.365-2.479 2.365H16.711c-1.38 0-2.5-1.218-2.5-2.72 0-.118.007-.236.022-.354l3.214-26.609c.163-1.353 1.224-2.365 2.479-2.365zm101.552 0c1.381 0 2.5 1.217 2.5 2.719 0 .118-.007.236-.02.354l-3.215 26.609c-.164 1.353-1.224 2.365-2.479 2.365h-81.425c-1.38 0-2.5-1.218-2.5-2.72 0-.118.007-.236.021-.354L119 128.893c.163-1.353 1.224-2.365 2.478-2.365zm106.842-49.217c1.381 0 2.5 1.217 2.5 2.72 0 .118-.007.236-.02.353l-3.215 26.61c-.164 1.353-1.224 2.365-2.479 2.365h-81.425c-1.38 0-2.5-1.218-2.5-2.72 0-.118.007-.237.021-.354l3.215-26.61c.163-1.353 1.223-2.364 2.478-2.364zm-203.105 0c1.38 0 2.5 1.217 2.5 2.72 0 .118-.007.236-.021.353l-3.215 26.61c-.163 1.353-1.224 2.365-2.478 2.365H22c-1.38 0-2.5-1.218-2.5-2.72 0-.118.008-.237.022-.354l3.214-26.61c.164-1.353 1.224-2.364 2.479-2.364zm101.553 0c1.38 0 2.5 1.217 2.5 2.72 0 .118-.007.236-.022.353l-3.214 26.61c-.163 1.353-1.224 2.365-2.479 2.365h-81.425c-1.38 0-2.5-1.218-2.5-2.72 0-.118.007-.237.021-.354l3.215-26.61c.163-1.353 1.224-2.364 2.479-2.364z" style="stroke-width:1.04298" clip-path="url(#a)" transform="translate(.847 -77.312)"/></svg>